<svg width="1600" height="1389" fill="none" xmlns="http://www.w3.org/2000/svg"><path fill="#620606" d="M0 0h1600v1389H0z"/><path d="M1200.5 563.5H1090l15.5-193h111.83l38.17-28.5-55 221.5zM837 872c-47.5 47.5-154.228 78.961-160.847 83.281L856.987 1118l45.611-126.114L837 872zm460-686.463L1004 158l42.75 164h157.18l76.07-69.5 17-66.963zM921.289 963c-16.729 47.29-51.607 145.52-57.289 160.04L1018.35 1274l65.65-274-162.711-37zm23.783-789.934C866.085 160.44 680.233 135 678 135l47.5 300L987 363.5l-41.928-190.434zM735.574 485.269L694.777 546 826.17 812.293 940 743.5l88-173.5-292.426-84.731zM712 462c-76.661 99.514-219.656 305.089-222 307L293 577.713 361.848 347 712 462zm-48.952-330.676L708.5 438.5 366 331.537 428.026 115l235.022 16.324zM605.652 851.55C543 817.339 553 817.339 513.359 795.823L680.5 557 811 817.339 680.5 874l-74.848-22.45zm344.299 109.188C1002 971.5 1025 975.5 1086.5 987l44-147.5-125-92-110 92 54.451 121.238zm64.889-227.899L1141 815.5l60-234.5h-118.5l-67.66 151.839z" fill="#fff" fill-opacity=".2"/><path d="M668.862 759l19.712-43.264 1.152 1.408h-28.608l1.664-1.536v10.112h-3.2V714.2h32.128v2.304L672.446 759h-3.584zm177.939-133.424c3.072.811 5.44 2.176 7.104 4.096 1.707 1.92 2.56 4.267 2.56 7.04 0 3.925-1.514 7.019-4.544 9.28-3.029 2.219-7.189 3.328-12.48 3.328-5.248 0-9.386-1.109-12.416-3.328-2.986-2.261-4.48-5.355-4.48-9.28 0-2.816.811-5.163 2.432-7.04 1.664-1.92 4.032-3.285 7.104-4.096-2.56-.853-4.522-2.133-5.888-3.84-1.365-1.707-2.048-3.797-2.048-6.272 0-3.584 1.387-6.4 4.16-8.448 2.774-2.091 6.486-3.136 11.136-3.136 4.651 0 8.384 1.045 11.2 3.136 2.816 2.091 4.224 4.907 4.224 8.448 0 2.432-.704 4.523-2.112 6.272-1.365 1.707-3.349 2.987-5.952 3.84zm-19.392-10.048c0 2.688 1.046 4.821 3.136 6.4 2.134 1.579 5.099 2.368 8.896 2.368 3.798 0 6.763-.768 8.896-2.304 2.176-1.579 3.264-3.712 3.264-6.4 0-2.731-1.109-4.885-3.328-6.464-2.176-1.621-5.12-2.432-8.832-2.432-3.712 0-6.656.789-8.832 2.368-2.133 1.579-3.2 3.733-3.2 6.464zm12.032 30.976c4.31 0 7.68-.875 10.112-2.624 2.432-1.749 3.648-4.139 3.648-7.168 0-2.987-1.216-5.355-3.648-7.104-2.432-1.749-5.802-2.624-10.112-2.624-4.266 0-7.616.875-10.048 2.624-2.389 1.749-3.584 4.117-3.584 7.104 0 3.029 1.195 5.419 3.584 7.168 2.39 1.749 5.739 2.624 10.048 2.624zm-16.687 370.816c-3.925 0-7.232-.9-9.92-2.69-2.645-1.79-4.651-4.37-6.016-7.74-1.365-3.37-2.048-7.383-2.048-12.034 0-5.077.832-9.301 2.496-12.672 1.664-3.413 3.989-5.973 6.976-7.68 2.987-1.749 6.464-2.624 10.432-2.624 1.92 0 3.755.171 5.504.512 1.749.341 3.307.939 4.672 1.792l-1.344 2.624c-1.152-.725-2.496-1.237-4.032-1.536-1.493-.341-3.093-.512-4.8-.512-5.035 0-9.067 1.643-12.096 4.928-3.029 3.243-4.544 8.128-4.544 14.656 0 .981.064 2.24.192 3.776a22.4 22.4 0 00.832 4.42l-1.152-.32c.299-2.479 1.131-4.591 2.496-6.34 1.365-1.749 3.115-3.072 5.248-3.968 2.133-.939 4.48-1.408 7.04-1.408 2.987 0 5.589.555 7.808 1.664 2.261 1.067 4.011 2.603 5.248 4.608 1.28 2.005 1.92 4.354 1.92 7.044 0 2.73-.661 5.12-1.984 7.16-1.28 2.01-3.051 3.57-5.312 4.68-2.219 1.11-4.757 1.66-7.616 1.66zm-.128-2.82c2.347 0 4.395-.42 6.144-1.28 1.749-.89 3.115-2.13 4.096-3.71 1.024-1.62 1.536-3.5 1.536-5.63 0-3.2-1.088-5.76-3.264-7.68-2.133-1.92-5.099-2.88-8.896-2.88-2.432 0-4.587.469-6.464 1.408-1.877.939-3.349 2.219-4.416 3.84-1.024 1.622-1.536 3.432-1.536 5.442 0 1.75.491 3.43 1.472 5.05.981 1.58 2.411 2.88 4.288 3.91 1.92 1.02 4.267 1.53 7.04 1.53zm159.938 103.82c-3.242 0-6.293-.55-9.152-1.66-2.816-1.11-5.013-2.56-6.592-4.36l1.664-2.49c1.366 1.58 3.286 2.9 5.76 3.97 2.475 1.02 5.227 1.53 8.256 1.53 4.139 0 7.254-.94 9.344-2.81 2.091-1.88 3.136-4.31 3.136-7.3 0-2.13-.49-3.97-1.472-5.5-.981-1.54-2.645-2.71-4.992-3.52-2.346-.86-5.546-1.28-9.6-1.28h-9.088l2.368-21.7h23.744v2.94h-22.4l1.6-1.53-2.112 19.01-1.536-1.67h8.128c4.566 0 8.192.56 10.88 1.67 2.731 1.06 4.694 2.58 5.888 4.54 1.238 1.96 1.856 4.27 1.856 6.91 0 2.48-.576 4.72-1.728 6.72-1.152 2.01-2.901 3.61-5.248 4.8-2.304 1.15-5.205 1.73-8.704 1.73zm23.246-234.736v-2.368l24.32-30.016h3.65l-24.25 30.016-1.8-.512h36.23v2.88h-38.15zM1031.35 896v-12.416l.06-2.88V869.76h3.14V896h-3.2zm82.45-193.68c-3.29 0-6.36-.555-9.22-1.664-2.82-1.109-5.01-2.56-6.59-4.352l1.66-2.496c1.37 1.579 3.29 2.901 5.76 3.968 2.52 1.024 5.31 1.536 8.39 1.536 4.01 0 7.06-.896 9.15-2.688 2.13-1.792 3.2-4.203 3.2-7.232 0-2.987-1.07-5.376-3.2-7.168-2.09-1.835-5.38-2.752-9.86-2.752h-2.81v-2.368l14.27-18.24.45 1.28h-25.35V657.2h28.1v2.304l-14.21 18.24-1.41-1.024h1.41c5.33 0 9.32 1.173 11.97 3.52 2.64 2.347 3.97 5.397 3.97 9.152 0 2.475-.6 4.693-1.8 6.656-1.15 1.963-2.9 3.499-5.24 4.608-2.31 1.109-5.19 1.664-8.64 1.664zM1155.09 478v-2.304l18.95-18.816c1.79-1.792 3.13-3.349 4.03-4.672.89-1.365 1.49-2.624 1.79-3.776.34-1.152.51-2.283.51-3.392 0-2.816-.96-5.035-2.88-6.656-1.92-1.664-4.73-2.496-8.45-2.496-2.81 0-5.29.427-7.42 1.28-2.09.853-3.9 2.155-5.44 3.904l-2.3-2.048c1.7-1.963 3.86-3.477 6.46-4.544 2.65-1.067 5.63-1.6 8.96-1.6 2.94 0 5.48.491 7.62 1.472 2.17.939 3.84 2.304 4.99 4.096 1.19 1.749 1.79 3.84 1.79 6.272 0 1.451-.21 2.88-.64 4.288-.38 1.365-1.11 2.816-2.18 4.352-1.02 1.536-2.51 3.285-4.48 5.248l-17.79 17.728-1.09-1.28h28.36V478h-30.79zm-18.35-215v-43.392l1.47 1.536h-12.42V218.2H1140V263h-3.26zm-307.466-19.12c3.925 0 7.211.896 9.856 2.688 2.688 1.792 4.715 4.373 6.08 7.744 1.365 3.328 2.048 7.339 2.048 12.032 0 5.035-.832 9.259-2.496 12.672-1.664 3.413-3.989 5.995-6.976 7.744-2.987 1.707-6.464 2.56-10.432 2.56-1.92 0-3.755-.171-5.504-.512-1.707-.341-3.264-.939-4.672-1.792l1.344-2.624c1.152.725 2.496 1.259 4.032 1.6 1.536.299 3.136.448 4.8.448 5.035 0 9.067-1.621 12.096-4.864 3.029-3.285 4.544-8.192 4.544-14.72 0-1.024-.064-2.283-.192-3.776a22.374 22.374 0 00-.832-4.416l1.152.32c-.299 2.475-1.131 4.587-2.496 6.336-1.365 1.707-3.115 3.029-5.248 3.968-2.091.939-4.437 1.408-7.04 1.408-2.987 0-5.611-.533-7.872-1.6-2.219-1.109-3.968-2.667-5.248-4.672-1.237-2.005-1.856-4.352-1.856-7.04 0-2.731.64-5.099 1.92-7.104 1.323-2.048 3.093-3.627 5.312-4.736 2.261-1.109 4.821-1.664 7.68-1.664zm.128 2.816c-2.347 0-4.395.448-6.144 1.344-1.749.853-3.136 2.069-4.16 3.648-.981 1.579-1.472 3.456-1.472 5.632 0 3.2 1.088 5.76 3.264 7.68 2.176 1.92 5.141 2.88 8.896 2.88 2.432 0 4.587-.469 6.464-1.408 1.877-.939 3.328-2.219 4.352-3.84 1.067-1.621 1.6-3.435 1.6-5.44 0-1.749-.491-3.413-1.472-4.992-.981-1.621-2.411-2.944-4.288-3.968-1.877-1.024-4.224-1.536-7.04-1.536zM509.626 267v-43.392l1.472 1.536h-12.416V222.2h14.208V267h-3.264zm32.199.32c-3.414 0-6.443-.917-9.088-2.752-2.646-1.835-4.715-4.437-6.208-7.808-1.494-3.413-2.24-7.467-2.24-12.16 0-4.693.746-8.725 2.24-12.096 1.493-3.413 3.562-6.037 6.208-7.872 2.645-1.835 5.674-2.752 9.088-2.752 3.456 0 6.485.917 9.088 2.752 2.645 1.835 4.714 4.459 6.208 7.872 1.493 3.371 2.24 7.403 2.24 12.096 0 4.693-.747 8.747-2.24 12.16-1.494 3.371-3.563 5.973-6.208 7.808-2.603 1.835-5.632 2.752-9.088 2.752zm0-3.008c2.858 0 5.354-.768 7.488-2.304 2.133-1.579 3.797-3.84 4.992-6.784 1.194-2.944 1.792-6.485 1.792-10.624 0-4.181-.598-7.723-1.792-10.624-1.195-2.944-2.859-5.184-4.992-6.72-2.134-1.579-4.63-2.368-7.488-2.368-2.816 0-5.312.789-7.488 2.368-2.134 1.536-3.798 3.776-4.992 6.72-1.195 2.901-1.792 6.443-1.792 10.624 0 4.139.597 7.68 1.792 10.624 1.194 2.944 2.858 5.205 4.992 6.784 2.176 1.536 4.672 2.304 7.488 2.304zM447.908 532v-43.392l1.472 1.536h-12.416V487.2h14.208V532h-3.264zm22.662 0v-43.392l1.472 1.536h-12.416V487.2h14.208V532h-3.264z" fill="#F8F8F8"/></svg>