<svg width="1600" height="1389" fill="none" xmlns="http://www.w3.org/2000/svg"><path fill="#fff" d="M0 0h1600v1389H0z"/><path d="M1319 165.348L1024.69 1313 277 591.79 417.69 104 1319 165.348z" stroke="#717171" stroke-opacity=".6" stroke-width="6"/><path d="M1210.5 541.5L1081 548l15.68-223.169h120.65L1277 280l-66.5 261.5zM801.249 870C759.59 892.294 674.619 937.961 668 942.281L856.987 1118 894 1017.89 801.249 870zM1297 180.5L1062 158l34.29 134h126.07l68.21-57.5 6.43-54zM921.289 963c-16.729 47.29-51.607 145.52-57.289 160.04L1018.35 1274l68.65-268.48L921.289 963zM1023.5 162.5c-102.33-9.121-343.107-27.5-346-27.5l29.214 190 347.786-21-31-141.5zM708.797 431L668 491.731 817.59 797l113.83-68.793 79.58-168.22L708.797 431zm-19.797.069C612.339 530.584 458.431 730.089 456.088 732L293 577.713 361.848 347 689 431.069zm-25.952-299.745L696 417l-330-85.463L428.026 115l235.022 16.324zm-66.895 733.8C562.247 828.811 491.16 752.3 486 745.397L662.641 493 811 806.339 671.573 884l-75.42-18.876zm353.798 95.614c48.235 12.47 143.069 37.582 146.859 38.262L1136 849.776 982.682 769 872 832.771l77.951 127.967zM1004 732.839l137 82.661 60-234.5h-129.34L1004 732.839z" stroke="#919191" stroke-width="2"/></svg>