<svg width="1600" height="1389" fill="none" xmlns="http://www.w3.org/2000/svg"><path fill="#fff" d="M0 0h1600v1389H0z"/><path d="M1210.5 543.125L1089.82 548l15.68-167.377h111.83L1252 361.5l-41.5 181.625zM837 872c-47.5 47.5-154.228 78.961-160.847 83.281L856.987 1118l45.611-126.114L837 872zm460-686.463L1004 158l42.75 164h157.18l76.07-69.5 17-66.963zM921.289 963c-16.729 47.29-51.607 145.52-57.289 160.04L1018.35 1274l68.65-268.48L921.289 963zm23.783-789.934C866.085 160.44 680.233 135 678 135l22.55 263L987 363.5l-41.928-190.434zM708.797 431L668 491.731l158.17 320.562L940 743.5l88-173.5-319.203-139zm-19.797.069C612.339 530.584 458.431 730.089 456.088 732L293 577.713 361.848 347 689 431.069zm-25.952-299.745L696 417l-330-85.463L428.026 115l235.022 16.324zM605.653 851.55C571.747 815.236 500.66 738.726 495.5 731.823L662.641 493 811 817.339 680.5 874l-74.847-22.45zm344.298 109.188c48.235 12.47 143.069 37.582 146.859 38.262L1136 849.776 1004.5 769l-109 70.5 54.451 121.238zm64.889-227.899L1141 815.5l60-234.5h-118.5l-67.66 151.839z" fill="#fff" fill-opacity=".2"/></svg>