<svg width="1600" height="1389" viewBox="0 0 1600 1389" fill="none" xmlns="http://www.w3.org/2000/svg">
<rect width="1600" height="1389" fill="white"/>
<path d="M1210.5 543.125L1089.82 548L1105.5 380.623H1217.33L1252 361.5L1210.5 543.125Z" fill="white" fill-opacity="0.2"/>
<path d="M837 872C789.5 919.5 682.772 950.961 676.153 955.281L856.987 1118L902.598 991.886L837 872Z" fill="white" fill-opacity="0.2"/>
<path d="M1297 185.537L1004 158L1046.75 322H1203.93L1280 252.5L1297 185.537Z" fill="white" fill-opacity="0.2"/>
<path d="M921.289 963C904.56 1010.29 869.682 1108.52 864 1123.04L1018.35 1274L1087 1005.52L921.289 963Z" fill="white" fill-opacity="0.2"/>
<path d="M945.072 173.066C866.085 160.44 680.233 135 678 135L700.55 398L987 363.5L945.072 173.066Z" fill="white" fill-opacity="0.2"/>
<path d="M708.797 431L668 491.731L826.17 812.293L940 743.5L1028 570L708.797 431Z" fill="white" fill-opacity="0.2"/>
<path d="M689 431.069C612.339 530.584 458.431 730.089 456.088 732L293 577.713L361.848 347L689 431.069Z" fill="white" fill-opacity="0.2"/>
<path d="M663.048 131.324L696 417L366 331.537L428.026 115L663.048 131.324Z" fill="white" fill-opacity="0.2"/>
<path d="M605.653 851.55C571.747 815.236 500.66 738.726 495.5 731.823L662.641 493L811 817.339L680.5 874L605.653 851.55Z" fill="white" fill-opacity="0.2"/>
<path d="M949.951 960.738C998.186 973.208 1093.02 998.32 1096.81 999L1136 849.776L1004.5 769L895.5 839.5L949.951 960.738Z" fill="white" fill-opacity="0.2"/>
<path d="M1014.84 732.839L1141 815.5L1201 581H1082.5L1014.84 732.839Z" fill="white" fill-opacity="0.2"/>
</svg>
